<?xml version="1.0" standalone="no"?><!DOCTYPE svg PUBLIC "-//W3C//DTD SVG 1.1//EN" "http://www.w3.org/Graphics/SVG/1.1/DTD/svg11.dtd"><svg t="1779616353132" class="icon" viewBox="0 0 1024 1024" version="1.1" xmlns="http://www.w3.org/2000/svg" p-id="8122" xmlns:xlink="http://www.w3.org/1999/xlink" width="200" height="200"><path d="M487.424 898.389333h-348.16c-12.970667 0-25.258667-4.778667-34.133333-12.288-4.778667-4.096-12.288-12.288-12.288-24.576V243.712c0-12.288 7.509333-21.162667 12.288-24.576 8.874667-8.192 21.162667-12.288 34.133333-12.288h197.290667V121.514667H127.658667c-31.402667 0-60.757333 10.922667-83.285334 30.72-23.210667 21.162667-36.864 49.152-36.864 79.872v641.706666c0 30.037333 12.970667 58.709333 36.864 79.872 22.528 19.797333 51.882667 30.72 83.285334 30.72h417.109333c-22.528-21.845333-42.325333-58.026667-57.344-86.016zM870.4 219.136c4.778667 4.096 12.288 12.288 12.288 24.576v232.106667c26.624 10.24 62.805333 24.576 85.333333 41.642666V232.106667c0-30.037333-12.970667-58.709333-36.864-79.872-22.528-19.797333-51.882667-30.72-83.285333-30.72h-218.453333v85.333333h206.165333c13.653333 0 25.941333 4.096 34.816 12.288z" p-id="8123" fill="#48a153"></path><path d="M766.634667 365.226667l-62.122667-62.122667-176.810667 176.810667V52.565333c0-18.432-15.018667-32.768-32.768-32.768h-21.845333c-18.432 0-32.768 15.018667-32.768 32.768v408.917334L281.941333 303.786667l-64.170666 64.170666 267.605333 267.605334M780.288 532.48c-130.389333 0-235.52 105.813333-235.52 235.52 0 130.389333 105.813333 235.52 235.52 235.52 130.389333 0 235.52-105.813333 235.52-235.52S910.677333 532.48 780.288 532.48z m146.773333 178.176l-165.205333 159.061333c-2.048 2.048-4.778667 4.096-7.509333 5.461334-10.24 7.509333-24.576 6.826667-34.133334-2.730667l-70.997333-70.997333c-10.24-10.24-10.24-27.306667 0-37.546667s27.306667-10.24 37.546667 0l53.248 53.248 148.821333-144.042667c10.24-10.24 27.306667-10.24 37.546667 0 10.922667 10.24 10.922667 27.306667 0.682666 37.546667z" p-id="8124" fill="#48a153"></path></svg>